<svg xmlns="http://www.w3.org/2000/svg" width="24" height="24" fill="none" viewBox="0 0 24 24"><path fill="#000" fill-rule="evenodd" d="M12 22C17.5228 22 22 17.5228 22 12C22 6.47715 17.5228 2 12 2C6.47715 2 2 6.47715 2 12C2 17.5228 6.47715 22 12 22ZM15 10C15 11.6569 13.6569 13 12 13C10.3431 13 9 11.6569 9 10C9 8.34315 10.3431 7 12 7C13.6569 7 15 8.34315 15 10ZM5.99927 17C7.36758 15.1783 9.54609 14 11.9998 14C14.4535 14 16.6321 15.1783 18.0004 17C16.6321 18.8217 14.4535 20 11.9998 20C9.54609 20 7.36758 18.8217 5.99927 17Z" clip-rule="evenodd"/></svg>